<svg xmlns="http://www.w3.org/2000/svg" xmlns:xlink="http://www.w3.org/1999/xlink" viewBox="0,0,256,256" width="100px" height="100px" fill-rule="nonzero"><g fill-opacity="0" fill="#000000" fill-rule="nonzero" stroke="none" stroke-width="1" stroke-linecap="butt" stroke-linejoin="miter" stroke-miterlimit="10" stroke-dasharray="" stroke-dashoffset="0" font-family="none" font-weight="none" font-size="none" text-anchor="none" style="mix-blend-mode: normal"><path d="M0,256v-256h256v256z" id="bgRectangle"></path></g><g fill="none" fill-rule="nonzero" stroke="none" stroke-width="1" stroke-linecap="butt" stroke-linejoin="miter" stroke-miterlimit="10" stroke-dasharray="" stroke-dashoffset="0" font-family="none" font-weight="none" font-size="none" text-anchor="none" style="mix-blend-mode: normal"><g transform="scale(2.56,2.56)"><path d="M93,36.396h-77.647l3.581,-2.548l-11.804,-6.838l13.87,-3.01l-1.677,-15.303l14.677,7.303l5.789,-11.396l14.211,11.396l14.441,-11.396l1.559,15.396l15,-6l-4.279,15.163z" fill="#f9b621"></path><path d="M17,58.281v-5.281c0,-2.209 1.791,-4 4,-4h3.219v16.5v0c-3.987,0 -7.219,-3.232 -7.219,-7.219z" fill="#fac4aa"></path><path d="M75.781,65.5v-16.5h3.219c2.209,0 4,1.791 4,4v5.281c0,3.987 -3.232,7.219 -7.219,7.219z" fill="#fac4aa"></path><path d="M76,47v17c0,1.71 -0.16,3.38 -0.48,5c-0.06,0.34 -0.13,0.67 -0.21,1c-0.5,2.06 -1.23,4.03 -2.19,5.88c0,0.02 -0.01,0.03 -0.02,0.05c-0.87,1.67 -1.91,3.24 -3.1,4.68c-2.82,3.4 -6.51,6.07 -10.71,7.68c-0.85,0.32 -1.65,0.74 -2.35,1.31l-0.78,0.64c-1.4,1.14 -3.15,1.76 -4.95,1.76h-2.42c-1.8,0 -3.55,-0.62 -4.95,-1.76l-0.78,-0.64c-0.7,-0.57 -1.5,-0.99 -2.35,-1.31c-4.28,-1.64 -8,-4.36 -10.84,-7.85c-1.17,-1.41 -2.17,-2.95 -3.01,-4.59c-0.03,-0.04 -0.05,-0.09 -0.07,-0.13c-0.92,-1.81 -1.63,-3.73 -2.1,-5.75c-0.08,-0.32 -0.15,-0.65 -0.21,-0.97c-0.31,-1.62 -0.48,-3.29 -0.48,-5v-17c0,-10.57 14.8,-9 26,-9c11.2,0 26,-1.57 26,9z" fill="#fac4aa"></path><rect x="24" y="36" width="52" height="13" fill="#787ab5"></rect><rect x="36" y="36" width="28" height="13" fill="#e3e2e3"></rect><path d="M24,49l2,11l2.125,-11z" fill="#f9b621"></path><path d="M66,49l10,7l0.125,-7z" fill="#f9b621"></path><path d="M57,49l7,2l2.125,-2z" fill="#f9b621"></path><circle cx="40" cy="40" r="2" fill="#8e9db5"></circle><circle cx="60" cy="40" r="2" fill="#8e9db5"></circle><circle cx="40" cy="45" r="2" fill="#8e9db5"></circle><circle cx="60" cy="45" r="2" fill="#8e9db5"></circle><path d="M38,57c-0.31,0 -0.61,0.05 -0.89,0.14c0.52,0.22 0.89,0.75 0.89,1.36c0,0.83 -0.67,1.5 -1.5,1.5c-0.61,0 -1.14,-0.37 -1.36,-0.89c-0.09,0.28 -0.14,0.58 -0.14,0.89c0,1.66 1.34,3 3,3c1.66,0 3,-1.34 3,-3c0,-1.66 -1.34,-3 -3,-3z" fill="#1f212b"></path><path d="M64,57c-0.31,0 -0.61,0.05 -0.89,0.14c0.52,0.22 0.89,0.75 0.89,1.36c0,0.83 -0.67,1.5 -1.5,1.5c-0.61,0 -1.14,-0.37 -1.36,-0.89c-0.09,0.28 -0.14,0.58 -0.14,0.89c0,1.66 1.34,3 3,3c1.66,0 3,-1.34 3,-3c0,-1.66 -1.34,-3 -3,-3z" fill="#1f212b"></path><path d="M57.2,77.9c-1.167,1.555 -4.665,2.6 -7.2,2.6c-2.535,0 -6.034,-1.045 -7.2,-2.6c-0.331,-0.442 -0.957,-0.53 -1.4,-0.2c-0.442,0.331 -0.531,0.958 -0.2,1.399c1.857,2.478 6.383,3.4 8.8,3.4c2.417,0 6.942,-0.923 8.8,-3.4c0.332,-0.441 0.242,-1.068 -0.2,-1.399c-0.442,-0.33 -1.068,-0.242 -1.4,0.2z" fill="#1f212b"></path><path d="M60,42c1.103,0 2,-0.897 2,-2c0,-1.103 -0.897,-2 -2,-2c-1.103,0 -2,0.897 -2,2c0,1.103 0.897,2 2,2zM60,39c0.551,0 1,0.448 1,1c0,0.552 -0.449,1 -1,1c-0.551,0 -1,-0.448 -1,-1c0,-0.552 0.449,-1 1,-1z" fill="#1f212b"></path><path d="M60,47c1.103,0 2,-0.897 2,-2c0,-1.103 -0.897,-2 -2,-2c-1.103,0 -2,0.897 -2,2c0,1.103 0.897,2 2,2zM60,44c0.551,0 1,0.448 1,1c0,0.552 -0.449,1 -1,1c-0.551,0 -1,-0.448 -1,-1c0,-0.552 0.449,-1 1,-1z" fill="#1f212b"></path><path d="M40,42c1.103,0 2,-0.897 2,-2c0,-1.103 -0.897,-2 -2,-2c-1.103,0 -2,0.897 -2,2c0,1.103 0.897,2 2,2zM40,39c0.551,0 1,0.448 1,1c0,0.552 -0.449,1 -1,1c-0.551,0 -1,-0.448 -1,-1c0,-0.552 0.449,-1 1,-1z" fill="#1f212b"></path><path d="M40,43c-1.103,0 -2,0.897 -2,2c0,1.103 0.897,2 2,2c1.103,0 2,-0.897 2,-2c0,-1.103 -0.897,-2 -2,-2zM40,46c-0.551,0 -1,-0.448 -1,-1c0,-0.552 0.449,-1 1,-1c0.551,0 1,0.448 1,1c0,0.552 -0.449,1 -1,1z" fill="#1f212b"></path><path d="M40.193,56.176c1.516,0.855 3.235,1.824 5.807,1.824v-2c-2.047,0 -3.459,-0.796 -4.824,-1.566c-1.251,-0.705 -2.544,-1.434 -4.176,-1.434c-3.8,0 -5.93,2.503 -6.018,2.61l1.533,1.285c0.065,-0.078 1.65,-1.895 4.485,-1.895c1.107,0 2.074,0.545 3.193,1.176z" fill="#1f212b"></path><path d="M65,53c-1.632,0 -2.925,0.729 -4.176,1.434c-1.365,0.77 -2.777,1.566 -4.824,1.566v2c2.572,0 4.291,-0.969 5.807,-1.824c1.119,-0.631 2.086,-1.176 3.193,-1.176c2.835,0 4.42,1.817 4.486,1.895l1.533,-1.285c-0.089,-0.107 -2.219,-2.61 -6.019,-2.61z" fill="#1f212b"></path><path d="M92.994,34.264l-10.672,-6.11l3.602,-12.605c0.212,-0.742 -0.022,-1.54 -0.601,-2.05c-0.373,-0.328 -0.845,-0.499 -1.323,-0.499c-0.266,0 -0.534,0.053 -0.788,0.162l-11.557,4.953l-1.67,-13.363c-0.091,-0.73 -0.577,-1.352 -1.263,-1.617c-0.235,-0.091 -0.479,-0.135 -0.722,-0.135c-0.47,0 -0.933,0.166 -1.302,0.481l-12.698,10.885l-12.698,-10.885c-0.366,-0.313 -0.829,-0.481 -1.302,-0.481c-0.132,0 -0.264,0.013 -0.396,0.04c-0.604,0.121 -1.117,0.515 -1.393,1.065l-5.055,10.109l-12.164,-6.951c-0.308,-0.176 -0.65,-0.263 -0.992,-0.263c-0.388,0 -0.775,0.113 -1.11,0.336c-0.63,0.421 -0.969,1.161 -0.874,1.913l1.765,14.014l-11.918,1.605c-0.847,0.114 -1.528,0.754 -1.695,1.592c-0.167,0.838 0.218,1.69 0.957,2.119l8.793,5.11l-0.957,0.681c-0.709,0.504 -1.011,1.409 -0.746,2.238c0.265,0.83 1.035,1.392 1.905,1.392h5.88v9h-1c-3.308,0 -6,2.692 -6,6v5.28c0,2.455 0.955,4.771 2.69,6.519c1.245,1.235 2.817,2.093 4.502,2.471c0.08,0.694 0.188,1.399 0.323,2.106c0.066,0.351 0.144,0.721 0.234,1.079c0.49,2.105 1.252,4.192 2.257,6.171c0.015,0.033 0.054,0.115 0.116,0.219c0.913,1.767 1.992,3.406 3.208,4.872c3.068,3.77 7.105,6.694 11.663,8.441c0.733,0.276 1.319,0.599 1.803,0.993l0.774,0.635c1.742,1.428 3.94,2.214 6.19,2.214h2.45c2.27,0 4.486,-0.793 6.241,-2.233l0.757,-0.621c0.478,-0.39 1.064,-0.713 1.786,-0.985c4.495,-1.723 8.483,-4.583 11.545,-8.275c1.275,-1.543 2.392,-3.228 3.323,-5.012c0.035,-0.063 0.066,-0.128 0.094,-0.193c0.995,-1.941 1.767,-4.03 2.297,-6.21c0.093,-0.384 0.17,-0.751 0.236,-1.124c0.132,-0.657 0.241,-1.359 0.322,-2.077c4.152,-0.927 7.189,-4.655 7.189,-8.99v-5.28c0,-3.308 -2.692,-6 -6,-6h-1v-9h14c0.907,0 1.7,-0.61 1.933,-1.486c0.233,-0.876 -0.153,-1.799 -0.939,-2.25zM63,48h-6.5h-19.5v-11h26zM36,48h-7.5h-4.5v-1v-10h12zM27.901,49l-1.499,8.242l-2.247,-8.242zM65.293,49l-1.907,1.907l-4.45,-1.907zM75.934,49l-0.819,6.552l-8.19,-6.552zM76,47v1h-9.5h-1h-1.5v-11h12zM83,53v5.28c0,3.664 -2.729,6.693 -6.267,7.152c-0.462,0.06 -0.801,0.448 -0.84,0.911c-0.075,0.897 -0.198,1.783 -0.373,2.657c-0.055,0.314 -0.121,0.619 -0.194,0.924l-12.679,-3.901c-0.265,-0.084 -0.543,0.067 -0.625,0.33c-0.081,0.265 0.067,0.544 0.331,0.625l12.714,3.912c-0.48,1.72 -1.115,3.376 -1.924,4.943l-7.467,-2.8c-0.26,-0.102 -0.547,0.033 -0.644,0.292c-0.097,0.259 0.034,0.547 0.292,0.644l7.338,2.752c-0.776,1.374 -1.662,2.679 -2.662,3.889c-2.82,3.4 -6.51,6.07 -10.71,7.68c-0.85,0.32 -1.65,0.74 -2.35,1.31l-0.757,0.621c-1.402,1.15 -3.16,1.779 -4.973,1.779h-2.45c-1.794,0 -3.533,-0.622 -4.92,-1.76l-0.78,-0.64c-0.7,-0.57 -1.5,-0.99 -2.35,-1.31c-4.28,-1.64 -8,-4.36 -10.84,-7.85c-0.96,-1.156 -1.799,-2.404 -2.535,-3.719l7.341,-2.753c0.258,-0.097 0.389,-0.385 0.292,-0.644c-0.097,-0.259 -0.385,-0.394 -0.644,-0.292l-7.473,2.802c-0.024,-0.037 -0.044,-0.079 -0.062,-0.115c-0.822,-1.618 -1.466,-3.329 -1.932,-5.115l11.789,-3.627c0.264,-0.081 0.412,-0.36 0.331,-0.625c-0.082,-0.264 -0.36,-0.418 -0.625,-0.33l-11.736,3.611c-0.048,-0.212 -0.098,-0.425 -0.137,-0.634c-0.167,-0.875 -0.294,-1.761 -0.372,-2.659c-0.04,-0.464 -0.38,-0.85 -0.841,-0.91c-1.616,-0.21 -3.061,-0.954 -4.157,-2.041c-1.3,-1.31 -2.11,-3.11 -2.11,-5.11v-5.279c0,-2.209 1.791,-4 4,-4h0.5h1.618l2.9,10.632c0.06,0.218 0.258,0.368 0.483,0.368c0.007,0 0.014,0 0.021,0c0.233,-0.011 0.429,-0.181 0.47,-0.41l1.926,-10.59h27.48l6.907,2.96c0.063,0.026 0.13,0.04 0.196,0.04c0.13,0 0.258,-0.051 0.354,-0.146l2.239,-2.239l9.095,7.276c0.09,0.072 0.2,0.109 0.312,0.109c0.063,0 0.127,-0.012 0.188,-0.037c0.168,-0.067 0.286,-0.222 0.308,-0.4l0.945,-7.563h2.059c2.209,0 4,1.791 4,4zM79.5,36h-2.5h-54h-1.5h-5.38l2.221,-1.58c0.596,-0.424 0.55,-1.323 -0.086,-1.685l-10.125,-5.885l12.882,-1.735c0.547,-0.064 0.939,-0.557 0.878,-1.104l-1.89,-15.011l13.082,7.476c0.157,0.09 0.327,0.132 0.495,0.132c0.366,0 0.72,-0.201 0.896,-0.553l5.527,-11.055l13.349,11.442c0.187,0.161 0.419,0.241 0.651,0.241c0.232,0 0.464,-0.08 0.651,-0.241l13.349,-11.442l1.835,14.681c0.065,0.52 0.508,0.877 0.992,0.877c0.13,0 0.264,-0.026 0.394,-0.082l12.779,-5.476l-3.821,13.374c-0.109,0.38 0.017,0.789 0.321,1.043l11.5,6.583z" fill="#1f212b"></path><path d="M50.137,37.969c-1.214,0.002 -2.407,0.507 -3.362,1.532c-0.622,0.666 -0.975,1.479 -1.072,2.314l-0.008,-0.003l-1.419,3.959c-0.087,0.241 0.039,0.507 0.28,0.594c0.05,0.018 0.103,0.027 0.157,0.027h4.904v-0.003c0.977,-0.004 1.945,-0.383 2.647,-1.135c1.098,-1.177 1.072,-3.084 -0.061,-4.257c-0.498,-0.516 -1.143,-0.874 -1.844,-0.945c-0.701,-0.071 -1.454,0.177 -2.036,0.795c-0.786,0.836 -0.773,2.217 0.036,3.049c0.279,0.286 0.653,0.488 1.073,0.557c0.42,0.068 0.914,-0.024 1.279,-0.375c0.279,-0.269 0.375,-0.653 0.334,-0.992c-0.042,-0.339 -0.202,-0.653 -0.45,-0.903c-0.177,-0.186 -0.471,-0.193 -0.656,-0.016c-0.186,0.177 -0.193,0.471 -0.016,0.656c0.004,0.004 0.009,0.009 0.013,0.013c0.108,0.109 0.174,0.254 0.188,0.363c0.013,0.109 -0.007,0.162 -0.057,0.21c-0.134,0.129 -0.284,0.16 -0.485,0.127c-0.201,-0.033 -0.426,-0.155 -0.556,-0.288c-0.422,-0.433 -0.425,-1.339 -0.025,-1.764c0.405,-0.43 0.826,-0.552 1.266,-0.508c0.44,0.045 0.905,0.287 1.27,0.666c0.782,0.81 0.795,2.18 0.05,2.979c-0.978,1.048 -2.693,1.132 -3.815,0.172c-1.449,-1.239 -1.583,-3.302 -0.317,-4.658c0.801,-0.858 1.722,-1.235 2.686,-1.237c0.964,-0.001 1.986,0.388 2.927,1.151c0.165,0.133 0.399,0.138 0.569,0.011l1.178,-0.88c0.206,-0.153 0.248,-0.445 0.094,-0.65c-0.153,-0.206 -0.445,-0.248 -0.65,-0.094l-0.934,0.698c-0.999,-0.721 -2.09,-1.166 -3.188,-1.165zM45.964,43.813c0.241,0.613 0.631,1.182 1.166,1.65h-1.757z" fill="#1f212b"></path></g></g></svg>